<?xml version="1.0" encoding="UTF-8"?>
<svg id="Layer_1" data-name="Layer 1" xmlns="http://www.w3.org/2000/svg" viewBox="0 0 800 800">
  <rect width="800" height="800" rx="120" ry="120" fill="#000"/>
  <defs>
    <style>
      .cls-1 {
        fill: #fff;
      }
    </style>
  </defs>
  <path class="cls-1" d="M603.94,386.27c0-56.43-45.91-102.34-102.35-102.34-.62,0-1.26.01-1.89.03,3.17,8.37,5.4,17.08,6.63,25.96.12.85.21,1.72.32,2.58,38.33,2.62,68.9,34.94,68.9,73.77,0,17.84-6.46,34.63-17.49,47.7-8.25,9.78-19.05,17.49-31.62,21.97-2.62.94-5.29,1.7-8,2.33-5.5,1.28-11.14,1.95-16.86,1.95-4.88,0-9.78-.48-14.56-1.43-8.83-1.76-17.17-5.09-24.79-9.9-11.84-7.46-21.3-18.07-27.36-30.69l-.79-1.66-19.28,23.99.45.7c9.73,15.26,23.36,27.71,39.39,36,7.84,4.07,16.21,7.09,24.86,9,7.22,1.58,14.64,2.39,22.08,2.39s15.5-.89,23.01-2.62c3.08-.71,6.13-1.54,9.14-2.54h0s1.09-.37,1.09-.37c.07-.02.13-.05.2-.07l.89-.3h0c14.89-5.3,27.97-13.83,38.59-24.63,18.43-18.74,29.43-44.32,29.43-71.82Z"/>
  <path class="cls-1" d="M326.96,278.78c.78.4,1.55.83,2.33,1.25,13.99-17.15,35.14-27.28,57.36-27.28,29.22,0,55.77,17.26,67.62,43.98,3.65,8.21,5.75,16.95,6.23,25.99.07,1.35.11,2.69.11,3.98,0,4.86-.48,9.75-1.44,14.53l-.28,1.38h28.85l.14-.99c.73-5.01,1.1-10.03,1.1-14.92s-.33-9.59-.99-14.25c-1.21-8.77-3.58-17.34-7.02-25.5-16.04-38.03-53.07-62.6-94.34-62.6-34.17,0-65.58,16.72-84.7,44.9,8.68,2.24,17.07,5.43,25.01,9.52Z"/>
  <path class="cls-1" d="M266.68,460.05c-38.36-2.6-68.95-34.92-68.95-73.78,0-17.33,6.01-33.28,16.04-45.9,6.9-8.69,15.72-15.79,25.8-20.68,9.72-4.71,20.61-7.37,32.12-7.37,4.9,0,9.78.48,14.51,1.43,8.84,1.76,17.19,5.08,24.82,9.89,12.04,7.58,21.6,18.38,27.63,31.25l.79,1.68,19.34-24.07-.44-.7c-9.79-15.53-23.57-28.18-39.86-36.57-7.86-4.04-16.23-7.06-24.88-8.95-7.16-1.56-14.53-2.35-21.92-2.35-20.34,0-39.32,5.97-55.27,16.25-9.81,6.32-18.48,14.26-25.61,23.46-13.45,17.32-21.47,39.06-21.47,62.64,0,56.43,45.91,102.35,102.35,102.35.68,0,1.36-.01,2.05-.03-3.18-8.33-5.45-17-6.72-25.86-.13-.89-.23-1.78-.34-2.68Z"/>
  <path class="cls-1" d="M446.13,493.66c-.79-.41-1.58-.84-2.36-1.27-13.98,16.97-35.06,27-57.13,27-29.07,0-55.56-17.14-67.48-43.66-3.69-8.21-5.82-16.93-6.33-25.94-.09-1.44-.14-2.91-.14-4.35,0-4.92.5-9.87,1.48-14.73l.28-1.39h-28.88l-.15.99c-.75,5.05-1.13,10.14-1.13,15.13s.35,9.84,1.04,14.66c1.26,8.78,3.66,17.35,7.12,25.46,16.13,37.8,53.09,62.23,94.18,62.23,34,0,65.31-16.59,84.45-44.55-8.66-2.26-17.04-5.46-24.97-9.57Z"/>
  <path class="cls-1" d="M404.52,412.21l21.36-26.43,13.72-16.98c.42-.52.18-1.25-.38-1.48-.11-.05-.23-.08-.37-.08h-23.66c-.61,0-1.06-.56-.94-1.15l4.52-22.31,10.62-52.37.49-2.39c.2-.98-1.06-1.57-1.69-.79l-.75.93-56.72,70.17-14.19,17.55-21.17,26.19c-.33.41-.25.95.07,1.28.17.17.4.28.67.28h23.66c.61,0,1.06.56.94,1.15l-4.48,22.11-11.02,54.37-.12.6c-.19.91.87,1.47,1.53.93.05-.04.11-.08.15-.14l57.75-71.45Z"/>
</svg>